Coordinates
version=1
nRows=43
nColumns=12
inDegrees=yes

Units are S.I. units (second, meters, Newtons, ...)
Angles are in degrees

endheader
time	SC_y	SC_z	SC_x	AC_y	AC_z	AC_x	GH_y	GH_z	GH_yy	EL_x	PS_y
       0.0              -18.47          21.44          63.74           50.3         -5.476          1.964          130.5           28.6          143.1          15.03          61.47
  0.005216              -18.47          21.44          63.74           50.3         -5.474          1.965          130.5           28.6          143.0          15.03          61.48
   0.01043              -18.47          21.44          63.73           50.3         -5.473          1.966          130.5          28.61          143.0          15.03          61.49
   0.01565              -18.47          21.44          63.73           50.3         -5.472          1.967          130.4          28.61          143.0          15.03           61.5
   0.02086              -18.47          21.44          63.72           50.3          -5.47          1.968          130.4          28.62          143.0          15.03          61.51
   0.02608              -18.47          21.45          63.72          50.31         -5.469          1.969          130.4          28.63          142.9          15.02          61.52
   0.03129              -18.47          21.45          63.71          50.31         -5.467          1.971          130.3          28.63          142.9          15.02          61.54
   0.03651              -18.47          21.45           63.7          50.31         -5.465          1.972          130.3          28.64          142.9          15.02          61.55
   0.04173              -18.47          21.45           63.7          50.31         -5.463          1.974          130.3          28.65          142.8          15.02          61.56
   0.04694              -18.47          21.46          63.69          50.31         -5.461          1.976          130.2          28.66          142.8          15.02          61.58
   0.05216              -18.47          21.46          63.68          50.31         -5.459          1.978          130.2          28.67          142.7          15.02           61.6
   0.05737              -18.47          21.46          63.67          50.31         -5.456          1.979          130.1          28.68          142.7          15.01          61.61
   0.06259              -18.47          21.46          63.66          50.31         -5.454          1.982          130.1          28.69          142.6          15.01          61.63
    0.0678              -18.48          21.47          63.65          50.31         -5.451          1.984          130.0           28.7          142.6          15.01          61.65
   0.07302              -18.48          21.47          63.64          50.31         -5.448          1.986          130.0          28.71          142.5           15.0          61.68
   0.07823              -18.48          21.47          63.63          50.31         -5.445          1.989          129.9          28.73          142.4           15.0           61.7
   0.08345              -18.48          21.48          63.61          50.31         -5.441          1.992          129.8          28.74          142.4           15.0          61.73
   0.08867              -18.48          21.48           63.6          50.32         -5.437          1.995          129.7          28.76          142.3          14.99          61.76
   0.09388              -18.48          21.49          63.58          50.32         -5.433          1.999          129.6          28.78          142.2          14.99          61.79
    0.0991              -18.48          21.49          63.56          50.32         -5.428          2.003          129.6           28.8          142.1          14.99          61.83
    0.1043              -18.48           21.5          63.54          50.32         -5.423          2.007          129.5          28.82          142.0          14.98          61.86
    0.1095              -18.48          21.51          63.52          50.32         -5.417          2.011          129.3          28.84          141.9          14.98          61.91
    0.1147              -18.49          21.51           63.5          50.32         -5.411          2.016          129.2          28.87          141.8          14.97          61.95
      0.12              -18.49          21.52          63.47          50.33         -5.404          2.022          129.1           28.9          141.7          14.96          62.01
    0.1252              -18.49          21.53          63.45          50.33         -5.397          2.028          128.9          28.93          141.5          14.96          62.06
    0.1304              -18.49          21.54          63.41          50.33         -5.388          2.035          128.7          28.97          141.3          14.95          62.13
    0.1356              -18.49          21.55          63.38          50.33         -5.379          2.043          128.5          29.01          141.1          14.94           62.2
    0.1408               -18.5          21.56          63.34          50.34         -5.368          2.052          128.3          29.06          140.9          14.93          62.28
     0.146               -18.5          21.58          63.29          50.34         -5.356          2.062          128.1          29.11          140.7          14.92          62.37
    0.1513               -18.5          21.59          63.24          50.35         -5.342          2.074          127.8          29.17          140.4           14.9          62.48
    0.1565              -18.51          21.61          63.18          50.35         -5.326          2.086          127.5          29.23          140.1          14.89           62.6
    0.1617              -18.51          21.63          63.11          50.36         -5.308          2.101          127.1          29.31          139.8          14.87          62.73
    0.1669              -18.51          21.66          63.03          50.36         -5.287          2.118          126.7           29.4          139.3          14.85          62.89
    0.1721              -18.52          21.68          62.94          50.37         -5.263          2.138          126.2           29.5          138.9          14.83          63.07
    0.1773              -18.53          21.72          62.83          50.38         -5.234          2.162          125.6          29.62          138.3           14.8          63.29
    0.1825              -18.54          21.75          62.71          50.39         -5.201          2.189          124.9          29.77          137.7          14.77          63.54
    0.1878              -18.54           21.8          62.56           50.4         -5.161          2.222          124.1          29.94          136.9          14.73          63.84
     0.193              -18.56          21.86          62.38          50.42         -5.113          2.261          123.2          30.14          135.9          14.68           64.2
    0.1982              -18.57          21.92          62.16          50.44         -5.055          2.308          122.0          30.39          134.8          14.63          64.63
    0.2034              -18.59           22.0          61.89          50.46         -4.985          2.366          120.5          30.69          133.4          14.56          65.16
    0.2086              -18.61           22.1          61.56          50.49         -4.898          2.438          118.8          31.06          131.7          14.47          65.82
    0.2138              -18.63          22.23          61.15          50.52         -4.789          2.527          116.6          31.52          129.6          14.37          66.64
    0.2191              -18.67          22.39          60.64          50.57         -4.653          2.639          113.8           32.1          126.9          14.24          67.67
